<?xml version="1.0" standalone="no"?>
<!DOCTYPE svg PUBLIC "-//W3C//DTD SVG 20010904//EN"
 "http://www.w3.org/TR/2001/REC-SVG-20010904/DTD/svg10.dtd">
<svg version="1.0" xmlns="http://www.w3.org/2000/svg"
 width="261.000000pt" height="193.000000pt" viewBox="0 0 261.000000 193.000000"
 preserveAspectRatio="xMidYMid meet">

<g transform="translate(0.000000,193.000000) scale(0.100000,-0.100000)"
fill="#000000" stroke="none">
<path d="M115 1336 c-37 -16 -83 -68 -92 -104 -3 -15 6 -144 21 -287 30 -287
35 -305 102 -343 38 -22 45 -22 299 -20 254 3 261 4 293 26 18 13 39 36 47 51
14 28 65 449 65 539 0 59 -29 105 -84 131 -40 20 -59 21 -332 21 -218 -1 -297
-4 -319 -14z m443 -251 c67 -41 94 -124 72 -228 -13 -65 -48 -113 -97 -133
-42 -18 -254 -19 -271 -2 -7 7 -12 29 -12 50 0 34 3 38 25 38 l26 0 -3 93 c-3
89 -4 92 -26 89 -23 -3 -33 13 -45 75 -8 41 -4 42 163 40 115 -2 140 -5 168
-22z"/>
<path d="M416 948 c-3 -29 -6 -72 -6 -95 0 -41 1 -43 29 -43 41 0 61 32 61 95
0 56 -5 67 -37 84 -35 18 -40 14 -47 -41z"/>
<path d="M1855 1336 c-47 -21 -86 -69 -92 -113 -3 -21 7 -151 22 -289 29 -275
35 -294 101 -332 38 -22 45 -22 299 -20 254 3 261 4 293 26 18 13 39 36 47 51
17 34 69 486 62 552 -5 57 -30 93 -83 119 -38 19 -59 20 -330 20 -219 -1 -296
-4 -319 -14z m313 -278 c3 -39 0 -48 -13 -48 -18 0 -16 -12 12 -79 l15 -36 22
55 c22 53 22 55 4 62 -14 6 -18 18 -18 53 l0 45 105 0 105 0 0 -50 c0 -37 -4
-50 -15 -51 -8 -1 -20 -2 -26 -3 -6 0 -37 -64 -68 -141 l-58 -140 -54 -3 -55
-3 -63 145 c-51 116 -67 145 -84 148 -19 3 -22 11 -25 51 l-3 48 108 -3 108
-3 3 -47z"/>
<path d="M1148 1153 c-13 -3 -18 -15 -18 -44 0 -34 3 -39 23 -39 21 0 22 -2
19 -92 -3 -119 -8 -138 -31 -138 -15 0 -20 -9 -23 -42 -3 -24 -3 -46 -1 -50 2
-5 87 -8 189 -8 l184 0 0 79 0 79 -31 6 c-62 12 -76 8 -85 -26 -8 -29 -14 -33
-47 -36 l-37 -3 0 40 c0 40 1 41 35 41 34 0 35 1 35 40 0 36 -3 40 -32 48 -26
6 -33 14 -33 33 0 20 6 25 33 27 23 2 32 -1 32 -11 0 -25 24 -37 64 -30 l37 6
-3 61 -3 61 -145 1 c-80 1 -153 0 -162 -3z"/>
</g>
</svg>
